<svg xmlns="http://www.w3.org/2000/svg" xml:space="preserve" id="svg5" width="4574.863" height="669.59" viewBox="0 0 1210.433 177.163"><g id="layer1" transform="translate(-13.23 -13.23)"><path id="rect10936-9" d="M687.917 33.922h2.887v148.729h-2.887z" style="fill:#00397c;stroke-width:6.16583"/><g id="g11879" transform="translate(13.23 13.23)scale(.26458)"><path id="path11626" d="M1290.07 139.53v52.11h11.38c17.51 0 22.75-14 22.75-26.06 0-14.08-6.47-26.05-22.94-26.05z"/><path id="polygon11628" d="m1883.82 451.58-32.18-103.46-29.33 103.46z"/><path id="polygon11630" d="m1398.77 176.08-11.25-31.91-10.27 31.91z"/><path id="path11632" d="M1112.12 139.53h-8.81v18.71h9.2c4.83 0 9.55-2.4 9.55-9.37 0-6.18-3.39-9.34-9.94-9.34"/><path id="path11634" d="M1461 139.53v52.11h11.4c17.51 0 22.73-14 22.73-26.06 0-14.08-6.44-26.05-22.95-26.05z"/><path id="path11636" d="M1658 165.58c0 15.08 8.82 25.08 22.13 25.08s22-10 22-25.08-8.82-25-22-25-22.13 9.97-22.13 25"/><path id="polygon11638" d="m2353.96 176.08-11.34-31.91-10.21 31.91z"/><path id="path11640" d="M2335.27 603.36c-11.37 0-18.9 7.24-18.9 18.17s7.53 18.2 18.9 18.2 18.75-7.25 18.75-18.2-7.51-18.17-18.75-18.17"/><path id="path11642" d="M1586.77 139.53v19.08h8.1c8 0 10.86-3.39 10.86-9.51 0-7-3.39-9.57-12.76-9.57z"/><path id="polygon11644" d="m2327.51 348.12-29.3 103.46h61.54z"/><path id="path11646" d="M2257.75 602.65h-9.52v37.78h9.71c14.93 0 19.41-10.17 19.41-18.9 0-10.26-5.5-18.88-19.6-18.88"/><path id="polygon11648" d="m2191.65 605.97-8.73 23.17h18.34z"/><path id="polygon11650" d="m1014.62 451.58-32.21-103.46-29.26 103.46z"/><path id="path11652" d="M2402.51 602.65H2395v13.54h7.84c4.13 0 8.16-1.74 8.16-6.78 0-4.49-2.89-6.76-8.49-6.76"/><path id="path11654" d="M705.83 124.49v46.76c0 25.44 14.65 36.53 34.88 36.53 19.2 0 35-9.41 35-36.65v-46.64h-17.45v45.8c0 14.69-8.5 20.36-17.72 20.36-10 0-17.31-7.09-17.31-18.92v-47.24z"/><path id="polygon11656" d="M797.98 206.69h17.43v-52.67l38.62 52.67h14.69v-82.2h-17.44v50.28L814 124.49h-16.02z"/><path id="rect11658" d="M892.15 124.49h17.38v82.2h-17.38z"/><path id="polygon11660" d="M998.7 124.49h-18.73l-17.5 46.9-18.47-46.9h-18.95l33.8 83.29h7.6z"/><path id="polygon11662" d="M1063.17 171.85V156.8h-31.88v-17.27h33.39v-15.04h-50.8v82.2h51.53v-15.04h-34.12v-19.8z"/><path id="path11664" d="M1140 148.12c0-12.28-8.51-23.63-22.83-23.63h-31.24v82.2h17.39v-33.38h5c9.42 0 12.19 15.78 19.68 33.38h19.14c-9.83-24.08-12-34.22-19.14-38.44 8-4.33 12-11.11 12-20.13m-27.48 10.12h-9.2v-18.71h8.81c6.55 0 9.94 3.16 9.94 9.34-.01 6.97-4.73 9.37-9.56 9.37z"/><path id="path11666" d="M1184.32 192.71c-7.64 0-13.81-2.78-23.91-10.6v17.71c7 4.22 13.07 8 25.26 8 15.55 0 26.83-9.19 26.83-25 0-28.68-35.52-25.2-35.52-37.59 0-4.09 4-6.75 10.22-6.75 6 0 12 2.06 22.14 7.34v-16c-8.78-4.44-15.87-6.38-23.67-6.38-16.19 0-26.65 9.39-26.65 23.61 0 29.56 35.54 24.6 35.54 38.1 0 4.78-3.56 7.56-10.24 7.56"/><path id="rect11668" d="M1232.11 124.49h17.4v82.2h-17.4z"/><path id="path11670" d="M1272.66 124.49v82.2h28.89c27.9 0 40.56-17.37 40.56-41 0-22.55-13.06-41.22-38.58-41.22zm51.54 41.09c0 12.08-5.24 26.06-22.75 26.06h-11.38v-52.11h11.19c16.47 0 22.94 11.97 22.94 26.05"/><path id="path11672" d="M1349 206.69h18.41l5.22-16.29h31.23l5.77 16.29h18.76l-31.07-82.2h-20.18zm38.5-62.52 11.25 31.91h-21.52z"/><path id="path11674" d="M1443.57 124.49v82.2h28.86c27.9 0 40.62-17.37 40.62-41 0-22.55-13.13-41.22-38.62-41.22zm51.53 41.09c0 12.08-5.22 26.06-22.73 26.06H1461v-52.11h11.18c16.48 0 22.92 11.97 22.92 26.05"/><path id="path11676" d="M1569.37 124.49v82.2h17.4v-33h13.85c16.07 0 23-13.26 23-24.81 0-11.21-7.17-24.37-23.15-24.37zm36.36 24.61c0 6.12-2.84 9.51-10.86 9.51h-8.1v-19.08h6.2c9.37 0 12.76 2.54 12.76 9.57"/><path id="path11678" d="M1640.07 165.58c0 21 14.42 42.2 40.06 42.2 25.08 0 40-21.09 40-42.2 0-19.76-13.62-42.17-40-42.17s-40.06 22.28-40.06 42.17m62.07 0c0 15.08-8.82 25.08-22 25.08s-22.13-10-22.13-25.08 8.82-25 22.13-25 22 9.97 22 25"/><path id="polygon11680" d="M1793.14 206.69v-15.04h-35.9v-67.16h-17.38v82.2z"/><path id="rect11682" d="M1810.64 124.49h17.41v82.2h-17.41z"/><path id="polygon11684" d="M1889.11 206.69v-67.16h25.32v-15.04h-68.03v15.04h25.29v67.16z"/><path id="polygon11686" d="M1949.79 139.53h33.38v-15.04h-50.82v82.2h51.52v-15.04h-34.08v-19.8h31.83V156.8h-31.83z"/><path id="path11688" d="M2044.61 140.54c8.63 0 16.38 3.36 24.11 8.43v-18.33c-6.89-4.84-15.57-7.23-25.35-7.23-26.68 0-42 20.49-42 42.41 0 21.24 13.53 42 40.64 42 10.37 0 17.76-2.31 27.45-8.2v-18c-10 5.66-16.16 9-25.26 9-14.59 0-24.94-10.47-24.94-25.2.04-14.53 10.5-24.88 25.35-24.88"/><path id="polygon11690" d="M2090.61 206.69h17.44v-52.67l38.57 52.67h14.69v-82.2h-17.4v50.28l-37.28-50.28h-16.02z"/><path id="rect11692" d="M2184.8 124.49h17.4v82.2h-17.4z"/><path id="path11694" d="M2265.71 140.54c8.6 0 16.37 3.36 24.05 8.43v-18.33c-6.84-4.84-15.55-7.23-25.29-7.23-26.7 0-42 20.49-42 42.41 0 21.24 13.56 42 40.67 42 10.38 0 17.73-2.31 27.44-8.2v-18c-10 5.66-16.15 9-25.27 9-14.54 0-24.89-10.47-24.89-25.2 0-14.53 10.44-24.88 25.29-24.88"/><path id="path11696" d="M2304.11 206.69h18.44l5.23-16.29H2359l5.76 16.29h18.73l-31.07-82.2h-20.17zm38.51-62.52 11.38 31.91h-21.55z"/><path id="path11698" d="M779.43 505.5c-21.9 0-39.51-9-68.22-34.38v57.4c19.9 13.64 37.22 25.77 72 25.77 44.52 0 76.73-29.69 76.73-80.83 0-92.95-101.63-81.6-101.63-121.83 0-13.28 11.43-21.87 29.29-21.87 17 0 34.28 6.63 63.26 23.84v-52c-25.14-14.4-45.31-20.6-67.6-20.6-46.28 0-76.13 30.45-76.13 76.54 0 95.67 101.63 79.66 101.63 123.38 0 15.61-10.3 24.58-29.33 24.58"/><path id="path11700" d="M872.28 550.77H925l15-52.69h89.28l16.42 52.69h53.58l-88.73-266.3h-57.7zm110.13-202.65 32.21 103.46h-61.47z"/><path id="polygon11702" d="M1274.69 550.77v-48.81h-102.55V284.47h-49.76v266.3z"/><path id="polygon11704" d="M1443.98 437.91v-48.79h-91.08v-55.85h95.46v-48.8H1303.1v266.3h147.31v-48.81h-97.51v-64.05z"/><path id="path11706" d="M1551.15 505.5c-22 0-39.56-9-68.22-34.38v57.4c19.89 13.64 37.18 25.77 72 25.77 44.55 0 76.73-29.69 76.73-80.83 0-92.95-101.63-81.6-101.63-121.83 0-13.28 11.43-21.87 29.31-21.87 17 0 34.27 6.63 63.25 23.84v-52c-25.18-14.45-45.41-20.7-67.66-20.7-46.23 0-76.11 30.45-76.11 76.54 0 95.67 101.59 79.66 101.59 123.38.01 15.71-10.24 24.68-29.26 24.68"/><path id="rect11708" d="M1667.13 284.47h49.76v266.3h-49.76z"/><path id="path11710" d="M1741.52 550.77h52.68l14.93-52.69h89.34l16.39 52.69h53.62l-88.76-266.3H1822Zm110.12-202.65 32.18 103.46h-61.51z"/><path id="polygon11712" d="M2193.95 550.77v-266.3h-49.76V447.3l-106.65-162.83h-45.66v266.3h49.83V380.14l110.36 170.63z"/><path id="path11714" d="m2298 284.47-80.56 266.3h52.71l14.85-52.69h89.34l16.37 52.69h53.64l-88.77-266.3zm.25 167.11 29.3-103.46 32.24 103.46z"/><path id="path11716" d="M47.74 465.46s-1.61-7.31-5.21-9.34c0 0-4.18-8.85 7.29-3.13l6.2-2.06L57.58 439s-8.32-12 0-13c0 0 5.19-.54 5.71-11.44l4.13-.68 2.43 2.93 5.59-2.12 4.56-6.47c-1.27-2-2.31-3.75-3.1-5.1 0 0-.82-1.4-2.12-3.82-.17-.31-.48-1-1.09-2.25a8.5 8.5 0 0 1-.69-1.88 6 6 0 0 1-.14-.79c-.08-1.77-.17-3.55-.25-5.32l1.79-.15c.32.11 3.56 1.21 5.6-.43 2.22-1.79 2.53-6.43-.74-10.06l-3-.26-2.02-5.16-.54-10.41 2-3.65v-3.63l-3.62 1L69 378.65 64.08 365l-1.81 7v3.12l-2.06 2.07-.58 4.15-5.15 2.58v3.62H43s-11.47-7.71-14-12.42c0 0-14 1-6.78-12.48L29 360.5s3.65-12.46-4.13-15.63v-.07H9.73a319.8 319.8 0 0 0 25.42 116.28q4.08 9.57 8.74 18.81l2.07-4c-2.08-.52-3.07-2.89 1.78-10.43"/><path id="path11718" d="M268.79 60.69c3.84-3.64 5.3-6.72 2.56-10.87-7.16-10.8 7.17-7.18 3.55-18a33.14 33.14 0 0 1-.84-15 324 324 0 0 0-43.4 11.35C239.9 42.4 253 53.19 268.79 60.69"/><path id="path11720" d="m132.21 183.16-3-.64q-2.13 5.43-4.09 10.95a25.4 25.4 0 0 1 3.5 2.52z"/><path id="path11722" d="m28 324.13-4.2-4.69-.51-14s14-1.53 15.86-6.48c0 0-5.44-11.68 8.6-6.23 0 0 6.74-2.84 1-6.5 0 0-15.61-8.29-1.56-17.65 0 0 8.83-4.17 11.94-7.25l1.55-12.5 3.13-1 .52-16.64s-11.44-6.76 2.1-11.42c0 0 6.21-10.41 36.87-11.94a28.6 28.6 0 0 1 7.27-5.48q3.6-11.26 7.8-22.17l-1.51-.35c-31-7.25-48.44-13.94-57-17.8a323.6 323.6 0 0 0-24.71 47 320.2 320.2 0 0 0-25.57 124.8h16.6z"/><path id="path11724" d="M139.29 159c-2 4.33-4 8.74-5.88 13.19 2.82.59 5.73 1.19 8.76 1.79 6.61-5.5 15.79-12.18 25.19-16 17.94-7.24 21.49-7.24 39.44-21.68s10.75-10.8 21.52-28.84-7.19 7.24 10.73-18a104.6 104.6 0 0 1 20.54-21.21 103.9 103.9 0 0 1-29.08-22.35C193.48 72 162.06 110.91 139.29 159"/><path id="path11726" d="M122.52 169.81c2.19-5.23 4.45-10.41 6.86-15.5 23.47-49.57 55.93-89.81 94.27-117q-1.86-2.62-3.56-5.42c-3.89 1.47-7.77 3-11.62 4.61A326.77 326.77 0 0 0 66 152.66c8.9 3.84 25.7 10 53.89 16.55z"/><path id="path11728" d="M237.17 479.81q1.1 4.8 2.28 9.57c10.72 43.26 26.13 82.1 44.69 112.83a173.4 173.4 0 0 1 45.64-7V474.56c-34.24.69-65.12 2.61-92.61 5.25"/><path id="path11730" d="M131.54 495.75c23.55 57.53 59.69 105.09 104.64 134.71 10.24-10.94 23.14-19 37.36-24.59-20.61-34.66-36.68-77.35-47.45-124.95a900 900 0 0 0-94.55 14.83"/><path id="path11732" d="M274.9 31.82c3.62 10.82-10.71 7.2-3.55 18 2.74 4.15 1.28 7.23-2.56 10.87 17.51 8.3 38.34 12.58 61 13.08V11.12a330 330 0 0 0-55.72 5.65 33.14 33.14 0 0 0 .83 15.05"/><path id="path11734" d="M91.87 487.81s0-14-12-12.49c0 0-8.82 2.62-18.13-8.85 0 0-8.89-4.17-11 8.85 0 0-2.92 1.1-4.87.59l-2.07 4q6.47 12.86 14 25.05c6.79-2.64 18.89-6.84 38.37-12a41 41 0 0 1-4.3-5.15"/><path id="path11736" d="M329.78 192.7V84.75a173.4 173.4 0 0 1-51.06-8.36c-17.48 31.47-31.36 69.37-41.09 111.2 27.37 2.56 58.03 4.41 92.15 5.11"/><path id="path11738" d="M239.05 89.48c-17.92 25.27 0 0-10.73 18s-3.61 14.43-21.52 28.84-21.5 14.47-39.44 21.68c-9.4 3.78-18.58 10.46-25.19 16 22.58 4.49 50.74 9 84.46 12.51 9.83-42.78 23.94-81.64 41.73-114.06-3-1.29-5.93-2.67-8.77-4.17a104.6 104.6 0 0 0-20.54 21.2"/><path id="path11740" d="m240.54 248.27 4.08-8.32s.52-7.25 25 16.07l8.83.58 2.11 6.27 14 2s4.16 3.63-15.05 2.58l1.07 8.3s10.4 4.17 15.05 11l1 20.68s-7.27-1.5-11.4 10.45l-.51 10.87s-1.16 1.91-3.37 5h48.48V203.68c-35-.69-66.57-2.63-94.55-5.29-3.41 16.06-6.21 32.67-8.38 49.66z"/><path id="path11742" d="M131 521.51q-5.53-11.4-10.33-23.32l-1.77.41C90.32 505.33 73.13 511 64 514.38a326.5 326.5 0 0 0 144.47 119.11q9.6 4 19.38 7.42c.44-.64.87-1.29 1.32-1.92C189.33 612.46 155.51 572 131 521.51"/><path id="path11744" d="M205.7 389.06a206.6 206.6 0 0 0-41.61 19.26s-17.19 13-18.15 15.59l-1.58 16.63s-3.63 9.88-8.85 10.89c0 0 1.62 14.56-3.08 15 0 0 9.4 13.69-5.9 16.35.31.86.63 1.72 1 2.58a905 905 0 0 1 96.29-15.26 651 651 0 0 1-11.4-82.75c-2.24.65-4.42 1.25-6.72 1.71"/><path id="path11746" d="M272.81 344.8c-10.53 12.54-27.66 29.38-49.72 38.79A631 631 0 0 0 234.81 469c28.14-2.73 59.81-4.72 95-5.42V344.8Z"/><path id="path11748" d="m132.21 183.16-3.6 12.84a29.4 29.4 0 0 1 5.37 6s9.85 3.12 10.88 8.3c0 0 13 2.07 18.71 12.49 0 0 7.81 2.05 8.34-.55 0 0 .52-6.73 14.56 8.86l2.61 10.38 17.11 1.52 1.53 4.73 8.09.12c2.18-17.3 5-34.21 8.46-50.59a920 920 0 0 1-92.06-14.1"/><path id="path11750" d="M238.71 644.48a326 326 0 0 0 91.07 14.41v-52.66c-34.6.77-71.04 10.91-91.07 38.25"/><path id="path11752" d="M90.18 332.84a441.1 441.1 0 0 1 20.39-130.56 28.6 28.6 0 0 0-7.27 5.48c-30.66 1.53-36.87 11.94-36.87 11.94-13.54 4.66-2.1 11.42-2.1 11.42l-.52 16.64-3.13 1-1.55 12.5c-3.11 3.08-11.94 7.25-11.94 7.25-14 9.36 1.56 17.65 1.56 17.65 5.73 3.66-1 6.5-1 6.5-14-5.45-8.6 6.23-8.6 6.23-1.82 4.95-15.86 6.48-15.86 6.48l.51 14 4.2 4.69-1.81 9.7H89.9Z"/><path id="path11754" d="M90.24 344.8h-65.4v.07C32.65 348 29 360.5 29 360.5l-6.78 2.09C15 376.1 29 375.07 29 375.07c2.56 4.71 14 12.42 14 12.42h11.48v-3.62l5.15-2.58.58-4.15 2.06-2.07V372l1.81-7L69 378.65l3.18-22.31 3.62-1v3.63l-2 3.65.44 10.38q1 2.58 2.06 5.16l3 .26a9 9 0 0 1 1 1.34c1.63 2.66 1.77 6.29.33 8.1a4.4 4.4 0 0 1-.89.83 4.7 4.7 0 0 1-2.54.68 6.6 6.6 0 0 1-1.27-.07 9 9 0 0 1-1.51-.39l-1.79.15.1 2.07c.13 2.87.15 3.21.15 3.25.07 1.38 1.52 4.88 7.14 13.84l-4.59 6.45-5.59 2.12-2.43-2.93-4.13.68c-.52 10.9-5.71 11.44-5.71 11.44-8.32 1 0 13 0 13L56 450.93 49.82 453c-11.47-5.72-7.29 3.13-7.29 3.13 3.6 2 5.21 9.34 5.21 9.34-4.85 7.54-3.86 9.91-1.78 10.45s4.87-.59 4.87-.59c2.06-13 11-8.85 11-8.85 9.31 11.47 18.13 8.85 18.13 8.85 12-1.53 12 12.49 12 12.49a41 41 0 0 0 4.41 5.12c5.83-1.54 12.32-3.18 19.53-4.89l.82-.19c-16.55-44.28-25.55-92.97-26.48-143.06"/><path id="path11756" d="M101.2 344.8c.93 48.86 9.83 95.84 25.33 138 15.3-2.66 5.9-16.35 5.9-16.35 4.7-.48 3.08-15 3.08-15 5.22-1 8.85-10.89 8.85-10.89l1.58-16.63c1-2.6 18.15-15.59 18.15-15.59a206.6 206.6 0 0 1 41.61-19.26c2.27-.46 4.48-1 6.67-1.67q-1.55-21-1.87-42.59z"/><path id="path11758" d="M272.81 344.8h-51.33q.27 19.62 1.61 38.79c22.06-9.41 39.19-26.25 49.72-38.79"/><path id="path11760" d="m207.72 247.76-1.53-4.76-17.11-1.53-2.61-10.38c-14-15.59-14.56-8.86-14.56-8.86-.53 2.6-8.34.55-8.34.55-5.69-10.42-18.71-12.49-18.71-12.49-1-5.18-10.88-8.3-10.88-8.3a29.4 29.4 0 0 0-5.37-6 25.4 25.4 0 0 0-3.5-2.52 415.2 415.2 0 0 0-20.7 88.67 447 447 0 0 0-3.27 51.69h109.29a698 698 0 0 1 5.38-85.95z"/><path id="path11762" d="m284.67 328.79.51-10.87c4.13-11.95 11.4-10.45 11.4-10.45l-1-20.68c-4.65-6.83-15.05-11-15.05-11l-1.07-8.3c19.21 1.05 15.05-2.58 15.05-2.58l-14-2-2.11-6.27-8.83-.58c-24.44-23.32-25-16.07-25-16.07l-4.08 8.32-13.69-.22a687 687 0 0 0-5.44 85.78h59.94c2.21-3.17 3.37-5.08 3.37-5.08"/><path id="path11764" d="M594.49 330.7c-6.35 14.27-9.5 9.46-9.5 9.46l-1.58-23.72-20.58-25.34-1.61-23.78a66.3 66.3 0 0 0 12.52-25.09 65 65 0 0 0 1.77-11 63.2 63.2 0 0 0-3.17-25.71c-12.69-1.57-14.27-4.76-14.27-4.76v-9.52c-14.27-22.17-26.92 3.18-26.92 3.18L515.23 196c-9.4 31.84-38.11 13.67-52.2 2.28-4.85-3.92-8-7-8-7l-31.68 15.88c-39.63 12.66-23.78-14.27-23.78-14.27l-6.24-13.8c-15.12 15.2-26.91 38.76-26.91 38.76l-1.73 21.93-1.5 16.47c-5.22 23.9-3.2 82.39-3.2 82.39-4.77 12.68 7.92 39.63 7.92 39.63-4.72 22.12 9.48 14.28 9.48 14.28l23.8-17.46c15.86 3.18 1.59 17.46 1.59 17.46-20.6 23.73 4.75 26.85 4.75 26.85 14.23 0 6.32-22.11 6.32-22.11 9.86 23.41 39.89 15.14 52.7 10.33-15.6 8.27-19.43 26.09-19.43 26.09 2.21 2.95 11.64 3.83 21.08 3.93 10.84.12 21.71-.8 21.71-.8 3.15-7.91 19-9.48 19-9.48 9.5-9.52-9.48-23.77-9.48-23.77-14.3-7.88-15.88-23.74-15.88-23.74 7.94 15.86 39.64 30.12 39.64 30.12v20.54c-8 3.2-1.63 39.61-1.63 39.61 6.67 21.31 23.42 9 28.6 4.57l-35 31.86v12.74c63.41 0 61.84-38 61.84-38v-36.53c15.83-4.74 11.07-38 11.07-38 17.47 17.38 19 3.18 20.61-1.63s12.7-18.95 12.7-18.95c19-44.4 6.34-57.11 6.34-57.11-22.18-12.64-14.3 11.08-14.3 11.08 4.81 19-7.88 33.29-7.88 33.29l-4.79-6.27c17.48-17.49 0-28.56 0-28.56 6.35-14.24 17.48-25.34 17.48-25.34 14.23-11.12 25.3 7.91 25.3 7.91l1.6-14.31c-36.38-26.87-50.64 23.83-50.64 23.83m-164.75-1.61-4.76 19s-7.9 0-14.29-20.57h-25.32s-28.54 9.5-9.49-9.54v-6.28l-11.13-1.58v-26.94l3.19-12.71 3.14-30.13s4.8 19.06 11.13 23.81c0 0 6.28 7.9-6.33 7.9 0 0 1.54 23.83 12.61 23.83l36.51 4.68s15.82 15.88 4.74 28.53m101.42 3.19c4.7 14.25-6.41 4.77-6.41 4.77-3.15-9.5-12.65-6.35-12.65-6.35-7.9 7.92-25.33 1.58-25.33 1.58h-12.68a19.3 19.3 0 0 1-8.21-3c-11.81-7.4-20.28-25.5-20.28-25.5 2.42 3.39 10.21 5 19.84 5.59 21.78 1.35 53-2.46 53-2.46 9.54 12.72 23.76 22.21 23.76 22.21z"/><path id="path11766" d="M497.83 443.19s-14-2-29.55-3.37c-20.59-1.77-43.77-2.27-40.16 4.94 0 0-3.15 7.95 23.79 7.95 0 0-12.63 6.31-7.92 11.07 0 0-20.61 6.32-23.76-4.76 0 0-7.93-36.4-23.77-6.31 0 0 6.35 12.67 12.65 17.39l1.58 12.69s6.39 15.82 50.75 22.18a47 47 0 0 0 8.28 1c12.09.57 34.36-2.22 45.51-28 0 .03 1.62-23.69-17.4-34.78"/><path id="polygon11768" d="M1974.31 651.36h43.99v-10.93h-29.12v-14.34h27.22v-10.92h-27.22v-12.53h28.52V591.7h-43.39z"/><path id="path11770" d="M2042.43 621.48c0-10.62 8.91-18.12 21.6-18.12 7.37 0 14 2.44 20.55 6.1v-13.28c-5.87-3.5-13.25-5.26-21.56-5.26-22.85 0-35.85 14.88-35.85 30.78 0 15.43 11.51 30.44 34.69 30.44 8.81 0 15.14-1.65 23.44-5.95v-13c-8.54 4.13-13.83 6.58-21.61 6.58-12.43-.04-21.26-7.65-21.26-18.29"/><path id="path11772" d="M2141.36 625c0 10.67-7.27 14.77-15.14 14.77-8.56 0-14.79-5.17-14.79-13.72V591.7h-14.84v33.94c0 18.44 12.51 26.51 29.83 26.51 16.33 0 29.81-6.81 29.81-26.58V591.7h-14.87z"/><path id="path11774" d="m2182.81 591.7-24 59.66h15.75l4.46-11.78h26.68l4.88 11.78h16L2200 591.7Zm.11 37.44 8.73-23.17 9.61 23.17z"/><path id="path11776" d="M2259.69 591.7h-26.31v59.66H2258c23.81 0 34.64-12.6 34.64-29.74.01-16.34-11.19-29.92-32.95-29.92m-1.75 48.73h-9.71v-37.78h9.52c14.1 0 19.6 8.62 19.6 18.88 0 8.73-4.48 18.9-19.41 18.9"/><path id="path11778" d="M2335.27 590.92c-22.51 0-34.24 16.19-34.24 30.61 0 15.22 12.34 30.61 34.24 30.61 21.4 0 34.08-15.28 34.08-30.61 0-14.32-11.65-30.61-34.08-30.61m0 48.81c-11.37 0-18.9-7.25-18.9-18.2s7.53-18.17 18.9-18.17 18.73 7.24 18.73 18.17-7.49 18.2-18.73 18.2"/><path id="path11780" d="M2416 623.47c6.85-3.14 10.24-8.06 10.24-14.6 0-8.92-7.26-17.17-19.52-17.17h-26.62v59.66h14.9v-24.22h4.28c8 0 10.38 11.47 16.77 24.22h16.39c-8.39-17.48-10.26-24.82-16.44-27.89m-13.21-7.28H2395v-13.54h7.52c5.6 0 8.48 2.27 8.48 6.76 0 5.04-4 6.78-8.17 6.78z"/><path id="polygon11782" d="m1967.74 98.43-13.01 17.36 26.01-8.68z"/><path id="polygon11784" d="M70.58 402.58v.04l.01-.05z"/><path id="path11786" d="M388.49 295.88c-11.07 0-12.61-23.83-12.61-23.83 12.61 0 6.33-7.9 6.33-7.9-6.33-4.75-11.13-23.81-11.13-23.81l-3.14 30.13-3.19 12.71v26.94l11.13 1.58v6.3c-19.05 19 9.49 9.54 9.49 9.54h25.32c6.39 20.57 14.29 20.57 14.29 20.57l4.76-19c11.08-12.65-4.76-28.53-4.76-28.53z"/><path id="path11788" d="M518.44 306.88s-31.22 3.81-53 2.46c-9.63-.6-17.42-2.2-19.84-5.59 0 0 8.47 18.1 20.28 25.5a19.3 19.3 0 0 0 8.21 3h12.68s17.43 6.34 25.33-1.58c0 0 9.5-3.15 12.65 6.35 0 0 11.11 9.48 6.41-4.77l11-3.19s-14.16-9.46-23.72-22.18"/><path id="path11790" d="M2448 78.21H549.83A333.43 333.43 0 0 0 335.93 0h-1.13a333.8 333.8 0 0 0-125.4 24.3C86.63 73.93 0 194.24 0 334.8c0 184.9 149.89 334.79 334.8 334.79a333.5 333.5 0 0 0 137-29.23h1472.3v-11H494c104.58-56.63 175.6-167.32 175.6-294.59a335 335 0 0 0-13-92.57H2448v-11H653.26a335.1 335.1 0 0 0-91-142.07H2448ZM210.43 333.83H101.14a447 447 0 0 1 3.27-51.69 415.2 415.2 0 0 1 20.7-88.67q2-5.52 4.09-10.95l3 .64a920 920 0 0 0 92.06 14.13 629 629 0 0 0-8.46 50.59 698 698 0 0 0-5.37 85.95m13.34 136.31a905 905 0 0 0-96.29 15.26c-.32-.86-.64-1.72-1-2.58-15.5-42.18-24.4-89.16-25.33-138H210.5q.3 21.56 1.87 42.59a651 651 0 0 0 11.4 82.73M142.17 174c-3-.6-5.94-1.2-8.76-1.79 1.89-4.45 3.83-8.86 5.88-13.19 22.77-48.1 54.19-87 91.22-113.09a103.9 103.9 0 0 0 29.08 22.35c2.84 1.5 5.77 2.88 8.77 4.17-17.79 32.42-31.9 71.28-41.73 114.06-33.72-3.51-61.88-8.03-84.46-12.51m-37.23-68a324.7 324.7 0 0 1 103.53-69.48c3.85-1.62 7.73-3.14 11.62-4.61q1.69 2.79 3.56 5.42c-38.34 27.17-70.8 67.41-94.27 117-2.41 5.09-4.67 10.27-6.86 15.5l-2.62-.6c-28.19-6.57-45-12.71-53.89-16.55A325.3 325.3 0 0 1 104.94 106M35.15 209a323.6 323.6 0 0 1 24.71-47c8.56 3.86 26 10.55 57 17.8l1.51.35q-4.2 10.9-7.8 22.17a441.1 441.1 0 0 0-20.39 130.52l-.28 1H9.58a320.2 320.2 0 0 1 25.57-124.91Zm8.74 271q-4.65-9.24-8.74-18.81A319.8 319.8 0 0 1 9.73 344.8h80.51c.93 50.09 9.93 98.78 26.39 143.05l-.82.19c-7.21 1.71-13.7 3.35-19.53 4.89-19.48 5.17-31.58 9.37-38.37 12q-7.56-12.18-14.02-25.04Zm184 161q-9.76-3.4-19.38-7.42A326.5 326.5 0 0 1 64 514.38c9.13-3.41 26.32-9.05 54.87-15.78l1.77-.41q4.81 11.9 10.33 23.32c24.54 50.52 58.36 91 98.2 117.48-.45.63-.88 1.28-1.32 1.92zm-96.35-145.25a900 900 0 0 1 94.55-14.83c10.77 47.6 26.84 90.29 47.45 125-14.22 5.6-27.12 13.65-37.36 24.59-44.95-29.67-81.09-77.23-104.64-134.76m198.24 133.79v29.35a326 326 0 0 1-91.07-14.41c20-27.34 56.47-37.44 91.07-38.25zm0-34.28a173.4 173.4 0 0 0-45.64 7c-18.56-30.73-34-69.57-44.69-112.83q-1.19-4.77-2.28-9.57c27.49-2.64 58.37-4.56 92.61-5.25zm0-131.67c-35.16.7-66.83 2.69-95 5.42a631 631 0 0 1-11.72-85.42q-1.34-19.17-1.61-38.79h108.3zm0-129.76H221.41a687 687 0 0 1 5.44-85.78c2.17-17 5-33.6 8.38-49.66 28 2.66 59.5 4.6 94.55 5.29zm0-141.13c-34.12-.67-64.83-2.55-92.15-5.11 9.73-41.83 23.61-79.73 41.09-111.2a173.4 173.4 0 0 0 51.06 8.36zm0-118.93c-22.65-.5-43.48-4.78-61-13.08-15.78-7.5-28.88-18.29-38.12-32.57a324 324 0 0 1 43.4-11.35 330 330 0 0 1 55.72-5.65zM469.72 506a47 47 0 0 1-8.28-1c-44.36-6.36-50.75-22.18-50.75-22.18l-1.58-12.69c-6.3-4.72-12.65-17.39-12.65-17.39 15.84-30.09 23.77 6.31 23.77 6.31 3.15 11.08 23.76 4.76 23.76 4.76-4.71-4.76 7.92-11.07 7.92-11.07-26.94 0-23.79-7.95-23.79-7.95-3.61-7.21 19.57-6.71 40.16-4.94 15.51 1.33 29.55 3.37 29.55 3.37 19 11.09 17.4 34.84 17.4 34.84-11.15 25.73-33.42 28.52-45.51 27.94m102.62-300.46a63.2 63.2 0 0 1 3.17 25.71 65 65 0 0 1-1.77 11 66.3 66.3 0 0 1-12.52 25.09l1.61 23.78 20.58 25.34 1.59 23.7s3.15 4.81 9.5-9.46c0 0 14.26-50.7 50.71-23.82l-1.6 14.31s-11.07-19-25.3-7.91c0 0-11.13 11.1-17.48 25.34 0 0 17.48 11.07 0 28.56l4.79 6.27s12.69-14.27 7.88-33.29c0 0-7.88-23.72 14.3-11.08 0 0 12.67 12.71-6.34 57.11 0 0-11.09 14.18-12.7 18.95s-3.14 19-20.61 1.63c0 0 4.76 33.25-11.07 38v36.46s1.57 38-61.84 38v-12.7l35-31.86c-5.18 4.46-21.93 16.74-28.6-4.57 0 0-6.36-36.41 1.63-39.61V410s-31.7-14.26-39.64-30.12c0 0 1.58 15.86 15.88 23.74 0 0 19 14.25 9.48 23.77 0 0-15.85 1.57-19 9.48 0 0-10.87.92-21.71.8-9.44-.1-18.87-1-21.08-3.93 0 0 3.83-17.82 19.43-26.09-12.81 4.81-42.84 13.08-52.7-10.33 0 0 7.91 22.11-6.32 22.11 0 0-25.35-3.12-4.75-26.85 0 0 14.27-14.28-1.59-17.46l-23.8 17.46s-14.2 7.84-9.48-14.28c0 0-12.69-26.95-7.92-39.63 0 0-2-58.49 3.2-82.39l1.5-16.47 1.73-21.93s11.79-23.56 26.91-38.76l6.24 13.8s-15.85 26.93 23.78 14.27l31.68-15.88s3.12 3.12 8 7c14.09 11.39 42.8 29.56 52.2-2.28l15.92-1.58s12.65-25.35 26.92-3.18v9.52s1.5 3.21 14.19 4.75"/></g><path id="rect10936-8-3" d="M717.55 179.748h345.96v2.91H717.55z" style="fill:#00397c;stroke-width:9.44252"/><text xml:space="preserve" id="text11061-4" x="31.073" y="3.262" style="font-size:2.46944px;white-space:pre;inline-size:36.0244;display:inline;fill:#00397c;stroke-width:.264999" transform="translate(-11.862 -2.357)scale(23.39152)"><tspan id="tspan12925" x="31.073" y="3.262"><tspan id="tspan12923" style="font-family:&quot;Gill Sans&quot;;-inkscape-font-specification:&quot;Gill Sans&quot;;stroke-width:.265">Ingeniería en Ciencias
</tspan></tspan><tspan id="tspan12929" x="31.073" y="6.44"><tspan id="tspan12927" style="font-family:&quot;Gill Sans&quot;;-inkscape-font-specification:&quot;Gill Sans&quot;;stroke-width:.265">de la Computación</tspan></tspan></text><text xml:space="preserve" id="text11119-1" x="1064.395" y="185.384" style="font-style:normal;font-variant:normal;font-weight:400;font-stretch:normal;font-size:22.1372px;font-family:&quot;Gill Sans&quot;;-inkscape-font-specification:&quot;Gill Sans&quot;;fill:#00397c;stroke-width:6.15889"><tspan id="tspan11117-2" x="1064.395" y="185.384" style="font-style:normal;font-variant:normal;font-weight:600;font-stretch:normal;font-size:22.1372px;font-family:&quot;Gill Sans&quot;;-inkscape-font-specification:&quot;Gill Sans Semi-Bold&quot;;stroke-width:6.1589">SEDE CUENCA</tspan></text></g></svg>